<svg width="413" height="355" viewBox="0 0 413 355" fill="none" xmlns="http://www.w3.org/2000/svg">
<path fill-rule="evenodd" clip-rule="evenodd" d="M147 237C153.627 237 159 231.627 159 225C159 218.373 153.627 213 147 213C140.373 213 135 218.373 135 225C135 231.627 140.373 237 147 237ZM147 249C160.255 249 171 238.255 171 225C171 211.745 160.255 201 147 201C133.745 201 123 211.745 123 225C123 238.255 133.745 249 147 249Z" fill="#999E66"/>
<path fill-rule="evenodd" clip-rule="evenodd" d="M80 213.857C92.0714 213.857 101.857 204.071 101.857 192C101.857 179.929 92.0714 170.143 80 170.143C67.9286 170.143 58.1429 179.929 58.1429 192C58.1429 204.071 67.9286 213.857 80 213.857ZM80 226C98.7777 226 114 210.778 114 192C114 173.222 98.7777 158 80 158C61.2223 158 46 173.222 46 192C46 210.778 61.2223 226 80 226Z" fill="#999E66"/>
<path fill-rule="evenodd" clip-rule="evenodd" d="M110 140.941C125.984 140.941 138.941 127.984 138.941 112C138.941 96.0162 125.984 83.0588 110 83.0588C94.0162 83.0588 81.0588 96.0162 81.0588 112C81.0588 127.984 94.0162 140.941 110 140.941ZM110 153C132.644 153 151 134.644 151 112C151 89.3563 132.644 71 110 71C87.3563 71 69 89.3563 69 112C69 134.644 87.3563 153 110 153Z" fill="#999E66"/>
<path d="M257.133 209.635C262.831 209.03 267.58 209.201 271.38 210.149C275.251 211.09 278.25 212.87 280.378 215.489C282.498 218.038 283.786 221.458 284.242 225.75C284.534 228.493 284.381 231.07 283.783 233.481C283.248 235.815 282.325 237.834 281.012 239.538C279.754 241.171 278.226 242.408 276.428 243.25C276.286 243.316 276.2 243.464 276.217 243.619V243.619C276.233 243.778 276.352 243.906 276.509 243.937C279.077 244.448 281.226 245.403 282.957 246.801C284.74 248.177 286.141 249.984 287.161 252.224C288.174 254.392 288.845 257.024 289.174 260.12C289.652 264.622 289.082 268.631 287.464 272.146C285.845 275.662 283.304 278.528 279.841 280.746C276.44 282.886 272.242 284.221 267.248 284.751L244.289 287.19C243.74 287.249 243.248 286.851 243.189 286.302L235.397 212.95C235.338 212.401 235.736 211.908 236.285 211.85L257.133 209.635ZM260.25 238.969C262.501 238.73 264.157 237.914 265.218 236.521C266.272 235.057 266.661 233.024 266.384 230.421C266.138 228.1 265.357 226.44 264.041 225.441C262.718 224.372 260.826 223.969 258.364 224.23L255.771 224.506C255.221 224.564 254.823 225.057 254.882 225.606L256.24 238.39C256.298 238.939 256.791 239.337 257.34 239.278L260.25 238.969ZM258.831 253.313C258.282 253.371 257.884 253.863 257.942 254.413L259.547 269.518C259.605 270.067 260.098 270.465 260.647 270.407L264.295 270.019C266.757 269.757 268.512 268.86 269.558 267.326C270.597 265.721 270.963 263.477 270.657 260.593C270.463 258.764 270.021 257.281 269.331 256.145C268.633 254.939 267.688 254.079 266.496 253.565C265.295 252.981 263.886 252.775 262.268 252.947L258.831 253.313Z" fill="#2B4836"/>
<path d="M228.964 261.723C229.861 267.454 229.643 272.465 228.309 276.755C226.965 280.975 224.564 284.394 221.107 287.011C217.709 289.548 213.284 291.243 207.833 292.096C199.865 293.343 193.411 292.133 188.469 288.467C183.528 284.801 180.379 278.634 179.023 269.968L171.368 221.054C171.283 220.508 171.656 219.996 172.202 219.911L188.048 217.431C188.593 217.346 189.105 217.719 189.19 218.265L196.714 266.34C197.348 270.394 198.396 273.202 199.858 274.763C201.308 276.254 203.222 276.814 205.598 276.442C207.275 276.18 208.584 275.617 209.523 274.754C210.521 273.81 211.138 272.496 211.376 270.812C211.603 269.058 211.497 266.784 211.06 263.988L203.553 216.017C203.468 215.471 203.841 214.96 204.386 214.875L220.233 212.395C220.778 212.309 221.29 212.682 221.375 213.228L228.964 261.723Z" fill="#2B4836"/>
<path d="M142.539 303.312C141.99 303.371 141.498 302.973 141.439 302.423L133.647 229.072C133.588 228.523 133.986 228.03 134.536 227.972L150.485 226.277C151.034 226.219 151.527 226.617 151.585 227.166L157.741 285.112C157.799 285.661 158.292 286.059 158.841 286.001L176.479 284.127C177.028 284.069 177.52 284.467 177.579 285.016L179.004 298.433C179.062 298.982 178.664 299.474 178.115 299.533L142.539 303.312Z" fill="#2B4836"/>
<path d="M106.588 240.846C104.82 240.865 103.234 241.448 101.831 242.594C100.499 243.67 99.3836 245.238 98.4859 247.299C97.5882 249.361 96.9076 251.879 96.4442 254.856C95.98 257.761 95.7675 261.053 95.8068 264.732C95.8612 269.825 96.3313 274.1 97.2172 277.557C98.173 280.942 99.5442 283.475 101.331 285.153C103.117 286.832 105.319 287.658 107.937 287.63C110.412 287.603 112.777 287.118 115.031 286.174C116.779 285.443 118.525 284.583 120.271 283.596C120.945 283.214 121.796 283.688 121.804 284.463L121.952 298.263C121.955 298.617 121.772 298.948 121.465 299.125C119.211 300.422 116.769 301.415 114.14 302.102C111.318 302.839 108.351 303.225 105.238 303.258C99.2256 303.322 94.1166 301.891 89.9113 298.965C85.7768 296.037 82.6179 291.72 80.4346 286.013C78.2505 280.235 77.1139 273.173 77.0248 264.826C76.9621 258.955 77.5421 253.643 78.7648 248.89C80.0574 244.065 81.8878 239.907 84.2559 236.415C86.6947 232.922 89.6373 230.238 93.0838 228.362C96.5296 226.415 100.445 225.418 104.831 225.371C108.156 225.336 111.379 225.726 114.5 226.541C117.389 227.296 120.253 228.476 123.09 230.079C123.493 230.307 123.678 230.787 123.541 231.23L119.564 244.073C119.363 244.72 118.591 244.985 118.021 244.619C116.393 243.577 114.744 242.72 113.074 242.05C111.014 241.223 108.852 240.822 106.588 240.846Z" fill="#2B4836"/>
<path d="M328.245 119.415C334.116 119.358 339.005 120.16 342.912 121.82C346.818 123.409 349.743 125.857 351.685 129.163C353.697 132.398 354.727 136.527 354.776 141.549C354.804 144.45 354.441 147.177 353.687 149.731C353.004 152.214 351.894 154.488 350.357 156.555C349.038 158.349 347.374 160.004 345.366 161.519C344.974 161.814 344.838 162.344 345.054 162.784L360.109 193.443C360.433 194.104 359.957 194.876 359.221 194.884L341.632 195.053C341.229 195.057 340.863 194.819 340.704 194.448L329.07 167.35C328.911 166.979 328.545 166.74 328.142 166.744L327.473 166.751C326.921 166.756 326.478 167.208 326.483 167.76L326.738 194.197C326.744 194.749 326.3 195.201 325.748 195.207L309.71 195.362C309.157 195.367 308.705 194.924 308.7 194.371L307.988 120.61C307.982 120.058 308.426 119.606 308.978 119.601L328.245 119.415ZM328.178 134.484L327.162 134.494C326.61 134.499 326.166 134.951 326.172 135.503L326.328 151.754C326.334 152.306 326.786 152.75 327.338 152.744L328.248 152.736C330.087 152.718 331.569 152.35 332.694 151.631C333.889 150.842 334.763 149.701 335.314 148.21C335.937 146.719 336.237 144.876 336.216 142.684C336.198 140.844 335.865 139.327 335.217 138.13C334.639 136.862 333.746 135.951 332.538 135.397C331.4 134.771 329.946 134.467 328.178 134.484Z" fill="#2B4836"/>
<path d="M301.893 197.781C301.951 198.331 301.553 198.823 301.004 198.881L266.694 202.526C266.145 202.585 265.653 202.187 265.594 201.638L257.802 128.286C257.743 127.737 258.141 127.244 258.69 127.186L293 123.541C293.549 123.483 294.042 123.881 294.1 124.43L295.503 137.636C295.561 138.185 295.163 138.677 294.614 138.736L278.243 140.475C277.694 140.533 277.296 141.026 277.354 141.575L278.589 153.198C278.647 153.747 279.14 154.145 279.689 154.087L294.689 152.493C295.238 152.435 295.73 152.833 295.789 153.382L297.192 166.588C297.25 167.137 296.852 167.63 296.303 167.688L281.303 169.282C280.754 169.34 280.356 169.832 280.414 170.382L281.896 184.326C281.954 184.875 282.447 185.273 282.996 185.215L299.367 183.476C299.916 183.417 300.409 183.815 300.467 184.364L301.893 197.781Z" fill="#2B4836"/>
<path d="M251.886 204.603C251.895 205.155 251.454 205.61 250.901 205.618L216.403 206.143C215.85 206.152 215.396 205.711 215.388 205.159L214.265 131.403C214.257 130.85 214.697 130.396 215.25 130.388L249.748 129.863C250.301 129.854 250.755 130.295 250.764 130.847L250.966 144.126C250.974 144.678 250.533 145.133 249.981 145.141L233.519 145.392C232.967 145.4 232.526 145.854 232.535 146.407L232.713 158.094C232.721 158.646 233.175 159.087 233.728 159.079L248.81 158.849C249.362 158.841 249.817 159.281 249.825 159.834L250.027 173.112C250.036 173.665 249.595 174.119 249.043 174.127L233.96 174.357C233.408 174.365 232.967 174.82 232.975 175.372L233.189 189.393C233.197 189.946 233.652 190.387 234.204 190.378L250.666 190.128C251.218 190.119 251.672 190.56 251.681 191.112L251.886 204.603Z" fill="#2B4836"/>
<path d="M172.206 136.521C177.87 135.653 182.622 135.606 186.461 136.377C190.371 137.138 193.449 138.778 195.695 141.297C197.931 143.746 199.376 147.103 200.029 151.368C200.446 154.096 200.412 156.677 199.927 159.113C199.5 161.469 198.67 163.528 197.438 165.291C196.257 166.98 194.787 168.287 193.029 169.21C192.891 169.283 192.812 169.435 192.836 169.589V169.589C192.86 169.746 192.984 169.869 193.142 169.893C195.731 170.285 197.922 171.14 199.716 172.457C201.56 173.749 203.043 175.49 204.165 177.68C205.277 179.8 206.069 182.398 206.54 185.475C207.225 189.95 206.841 193.981 205.386 197.567C203.931 201.154 201.525 204.134 198.167 206.509C194.869 208.803 190.737 210.331 185.772 211.091L162.951 214.586C162.405 214.669 161.894 214.295 161.811 213.749L150.645 140.834C150.561 140.288 150.936 139.778 151.482 139.694L172.206 136.521ZM176.671 165.68C178.909 165.338 180.526 164.446 181.522 163.005C182.507 161.494 182.802 159.446 182.405 156.858C182.052 154.551 181.195 152.928 179.835 151.992C178.464 150.985 176.555 150.669 174.108 151.044L171.53 151.439C170.984 151.522 170.609 152.032 170.693 152.578L172.639 165.286C172.723 165.832 173.233 166.207 173.779 166.123L176.671 165.68ZM175.915 180.074C175.369 180.157 174.994 180.667 175.078 181.213L177.377 196.229C177.461 196.774 177.971 197.149 178.517 197.066L182.144 196.51C184.591 196.136 186.302 195.158 187.277 193.577C188.241 191.927 188.503 189.668 188.064 186.801C187.786 184.983 187.276 183.522 186.534 182.419C185.782 181.246 184.799 180.431 183.583 179.973C182.357 179.445 180.94 179.304 179.332 179.55L175.915 180.074Z" fill="#2B4836"/>
<path d="M307.304 58.4102C307.688 59.2899 308.97 59.1761 309.193 58.2426L315.089 33.5523C315.189 33.134 315.545 32.8265 315.974 32.7885L332.276 31.342C332.983 31.2794 333.528 31.9514 333.321 32.6297L319.123 79.201C319.085 79.3239 319.072 79.4529 319.083 79.581L321.547 107.352C321.596 107.902 321.19 108.388 320.639 108.437L304.663 109.854C304.113 109.903 303.627 109.497 303.579 108.946L301.171 81.807C301.159 81.6805 301.124 81.5574 301.067 81.4441L278.823 37.4608C278.504 36.8297 278.923 36.0759 279.627 36.0134L296.148 34.5475C296.577 34.5095 296.981 34.7496 297.153 35.1437L307.304 58.4102Z" fill="#2B4836"/>
<path d="M266.539 123.366C266.542 123.918 266.097 124.368 265.545 124.372L249.612 124.473C249.06 124.476 248.609 124.031 248.606 123.479L248.238 65.3144C248.234 64.7621 247.784 64.3172 247.232 64.3207L235.543 64.3947C234.991 64.3982 234.54 63.9533 234.537 63.401L234.451 49.8027C234.447 49.2504 234.892 48.7999 235.445 48.7964L278.648 48.523C279.2 48.5196 279.65 48.9644 279.654 49.5167L279.74 63.115C279.743 63.6673 279.299 64.1178 278.746 64.1213L267.164 64.1946C266.612 64.1981 266.167 64.6486 266.171 65.2009L266.539 123.366Z" fill="#2B4836"/>
<path d="M231.93 99.3724C232.423 104.015 231.879 108.27 230.298 112.138C228.78 115.927 226.37 119.029 223.07 121.442C219.769 123.856 215.692 125.321 210.838 125.836C208.657 126.068 206.532 126.151 204.462 126.087C202.392 126.022 200.3 125.746 198.185 125.26C196.303 124.805 194.31 124.151 192.204 123.297C191.866 123.16 191.633 122.846 191.594 122.483L189.926 106.781C189.842 105.987 190.679 105.415 191.401 105.757C194.015 106.997 196.647 107.945 199.297 108.602C202.511 109.398 205.42 109.658 208.023 109.382C209.5 109.225 210.67 108.852 211.532 108.262C212.465 107.665 213.097 106.922 213.429 106.033C213.832 105.137 213.978 104.161 213.865 103.106C213.746 101.98 213.426 100.982 212.907 100.113C212.451 99.1653 211.495 98.1998 210.038 97.2162C208.645 96.1549 206.487 94.9258 203.564 93.5289C201.234 92.3537 199.08 91.1597 197.101 89.9471C195.193 88.727 193.516 87.3401 192.071 85.7863C190.618 84.1622 189.424 82.2971 188.488 80.1911C187.616 78.0073 187.019 75.403 186.698 72.3781C186.22 67.876 186.688 63.9135 188.103 60.4908C189.51 56.9977 191.805 54.1573 194.988 51.9696C198.24 49.7744 202.329 48.4152 207.253 47.8921C210.348 47.5633 213.527 47.688 216.79 48.2662C219.811 48.7376 222.909 49.6301 226.081 50.9437C226.513 51.1226 226.756 51.5823 226.669 52.0419L223.983 66.2008C223.86 66.8472 223.158 67.2005 222.558 66.9295C220.236 65.88 218.076 65.1263 216.078 64.6684C213.737 64.0634 211.617 63.8618 209.718 64.0636C208.452 64.1981 207.419 64.5212 206.619 65.033C205.89 65.5373 205.356 66.1987 205.016 67.0174C204.739 67.7582 204.649 68.5858 204.746 69.5003C204.888 70.8369 205.223 71.9752 205.749 72.9152C206.339 73.7774 207.397 74.6965 208.924 75.6726C210.443 76.5783 212.702 77.761 215.703 79.2207C218.922 80.7284 221.664 82.429 223.928 84.3227C226.255 86.1385 228.081 88.2566 229.405 90.677C230.729 93.0973 231.571 95.9958 231.93 99.3724Z" fill="#2B4836"/>
<path d="M171.839 123.71C171.365 123.776 170.911 123.496 170.756 123.043L166.429 110.386C166.275 109.933 165.82 109.653 165.346 109.719L150.792 111.732C150.318 111.798 149.957 112.19 149.931 112.669L149.204 126.025C149.178 126.503 148.817 126.896 148.343 126.961L131.08 129.35C130.438 129.439 129.882 128.903 129.948 128.258L137.644 52.7259C137.691 52.2672 138.045 51.8999 138.502 51.8367L160.493 48.794C160.949 48.731 161.389 48.987 161.559 49.4145L189.68 119.991C189.92 120.594 189.531 121.262 188.888 121.351L171.839 123.71ZM155.931 78.2414C155.319 76.3979 154.752 74.6196 154.229 72.9065C153.706 71.1935 153.228 69.5456 152.795 67.963C152.776 67.8906 152.756 67.8185 152.737 67.7466C152.563 67.0974 151.605 67.2405 151.61 67.9128V67.9128C151.623 69.5535 151.575 71.2741 151.467 73.0744C151.429 74.8651 151.366 76.7306 151.277 78.6711L150.535 94.9345C150.506 95.5591 151.052 96.0564 151.671 95.9707L160.12 94.8016C160.738 94.7161 161.128 94.0922 160.933 93.4995L155.931 78.2414Z" fill="#2B4836"/>
<path d="M114.961 133.949C115.019 134.498 114.621 134.991 114.072 135.049L98.228 136.732C97.6789 136.791 97.1863 136.393 97.128 135.844L90.9833 78.0032C90.9249 77.454 90.4324 77.0561 89.8832 77.1144L78.2601 78.3492C77.7109 78.4076 77.2184 78.0097 77.1601 77.4605L75.7235 63.938C75.6651 63.3888 76.0631 62.8963 76.6122 62.838L119.574 58.2738C120.124 58.2155 120.616 58.6134 120.675 59.1626L122.111 72.6851C122.169 73.2343 121.772 73.7268 121.222 73.7851L109.705 75.0087C109.156 75.067 108.758 75.5595 108.816 76.1087L114.961 133.949Z" fill="#2B4836"/>
<path fill-rule="evenodd" clip-rule="evenodd" d="M301 244C301 240.134 304.295 237 308.36 237H321.64C325.705 237 329 240.134 329 244C329 247.866 325.705 251 321.64 251H308.36C304.295 251 301 247.866 301 244Z" fill="#ED8F45"/>
<path fill-rule="evenodd" clip-rule="evenodd" d="M300.218 275.983C302.212 272.643 306.414 271.765 309.604 274.02C309.785 274.148 309.98 274.285 310.188 274.43C312.314 275.919 315.759 278.332 318.13 281.322C320.608 284.447 320.321 289.043 317.49 291.589C314.66 294.134 310.356 293.665 307.879 290.54C306.92 289.331 305.162 288.08 302.383 286.115C299.193 283.86 298.224 279.323 300.218 275.983Z" fill="#ED8F45"/>
<path fill-rule="evenodd" clip-rule="evenodd" d="M277.5 292C281.642 292 285 295.215 285 299.181V307.819C285 311.785 281.642 315 277.5 315C273.358 315 270 311.785 270 307.819V299.181C270 295.215 273.358 292 277.5 292Z" fill="#ED8F45"/>
</svg>
