<svg width="43" height="43" viewBox="0 0 43 43" fill="none" xmlns="http://www.w3.org/2000/svg">
<circle cx="21.5" cy="21.5" r="21.5" fill="#999E66"/>
<path d="M32.2667 19.4333V19.1532C32.2667 18.5079 31.9081 17.9274 31.3306 17.6385C31.0035 17.475 30.8 17.1461 30.8 16.7801V13.5667H31.0523C31.3177 13.5667 31.5333 13.3511 31.5333 13.0856V12.3977C31.5333 11.627 30.9067 11 30.136 11H27.7974C27.0266 11 26.4 11.627 26.4 12.3977V13.086C26.4 13.3511 26.6156 13.5667 26.8811 13.5667H27.1333V16.7801C27.1333 17.1461 26.9298 17.4753 26.6028 17.6389C26.0253 17.9278 25.6667 18.5082 25.6667 19.1532V19.4333H25.3V19.1532C25.3 18.5079 24.9414 17.9274 24.3639 17.6385C24.0368 17.475 23.8333 17.1461 23.8333 16.7801V13.5667H24.0856C24.3511 13.5667 24.5667 13.3511 24.5667 13.0856V12.3977C24.5667 11.627 23.94 11 23.1693 11H20.8307C20.06 11 19.4333 11.627 19.4333 12.3977V13.086C19.4333 13.3511 19.6489 13.5667 19.9144 13.5667H20.1667V16.7801C20.1667 17.1461 19.9632 17.4753 19.6361 17.6389C19.0586 17.9278 18.7 18.5082 18.7 19.1532V19.4333H18.3333V19.1532C18.3333 18.5079 17.9747 17.9274 17.3972 17.6385C17.0702 17.475 16.8667 17.1461 16.8667 16.7801V13.5667H17.1189C17.3844 13.5667 17.6 13.3511 17.6 13.0856V12.3977C17.6 11.627 16.9734 11 16.2026 11H13.864C13.0933 11 12.4667 11.627 12.4667 12.3977V13.086C12.4667 13.3511 12.6823 13.5667 12.9477 13.5667H13.2V16.7801C13.2 17.1461 12.9965 17.4753 12.6694 17.6389C12.0919 17.9278 11.7333 18.5082 11.7333 19.1532V19.4333H11V33H33V30.8V25.6667V19.4333H32.2667ZM27.1333 12.3977C27.1333 12.1389 27.2837 11.9167 27.5 11.807V12.1C27.5 12.3028 27.6643 12.4667 27.8667 12.4667C28.0691 12.4667 28.2333 12.3028 28.2333 12.1V11.7333H28.6V12.1C28.6 12.3028 28.7643 12.4667 28.9667 12.4667C29.1691 12.4667 29.3333 12.3028 29.3333 12.1V11.7333H29.7V12.1C29.7 12.3028 29.8643 12.4667 30.0667 12.4667C30.2691 12.4667 30.4333 12.3028 30.4333 12.1V11.807C30.6497 11.9167 30.8 12.1389 30.8 12.3977V12.8333H27.1333V12.3977ZM26.4 19.1532C26.4 18.7873 26.6035 18.458 26.9306 18.2945C27.5081 18.0055 27.8667 17.4251 27.8667 16.7801V13.5667H30.0667V16.7801C30.0667 17.4255 30.4253 18.0059 31.0028 18.2948C31.3298 18.4584 31.5333 18.7873 31.5333 19.1532V19.4333H26.4V19.1532ZM20.1667 12.3977C20.1667 12.1389 20.317 11.9167 20.5333 11.807V12.1C20.5333 12.3028 20.6976 12.4667 20.9 12.4667C21.1024 12.4667 21.2667 12.3028 21.2667 12.1V11.7333H21.6333V12.1C21.6333 12.3028 21.7976 12.4667 22 12.4667C22.2024 12.4667 22.3667 12.3028 22.3667 12.1V11.7333H22.7333V12.1C22.7333 12.3028 22.8976 12.4667 23.1 12.4667C23.3024 12.4667 23.4667 12.3028 23.4667 12.1V11.807C23.683 11.9167 23.8333 12.1389 23.8333 12.3977V12.8333H20.1667V12.3977ZM19.4333 19.1532C19.4333 18.7873 19.6368 18.458 19.9639 18.2945C20.5414 18.0055 20.9 17.4251 20.9 16.7801V13.5667H23.1V16.7801C23.1 17.4255 23.4586 18.0059 24.0361 18.2948C24.3632 18.4584 24.5667 18.7873 24.5667 19.1532V19.4333H19.4333V19.1532ZM13.2 12.3977C13.2 12.1389 13.3503 11.9167 13.5667 11.807V12.1C13.5667 12.3028 13.7309 12.4667 13.9333 12.4667C14.1357 12.4667 14.3 12.3028 14.3 12.1V11.7333H14.6667V12.1C14.6667 12.3028 14.8309 12.4667 15.0333 12.4667C15.2357 12.4667 15.4 12.3028 15.4 12.1V11.7333H15.7667V12.1C15.7667 12.3028 15.9309 12.4667 16.1333 12.4667C16.3357 12.4667 16.5 12.3028 16.5 12.1V11.807C16.7163 11.9167 16.8667 12.1389 16.8667 12.3977V12.8333H13.2V12.3977ZM12.4667 19.1532C12.4667 18.7873 12.6702 18.458 12.9972 18.2945C13.5747 18.0055 13.9333 17.4251 13.9333 16.7801V13.5667H16.1333V16.7801C16.1333 17.4255 16.4919 18.0059 17.0694 18.2948C17.3965 18.4584 17.6 18.7873 17.6 19.1532V19.4333H12.4667V19.1532ZM28.3851 28.2333L29.8518 26.7667L29.4851 26.4H32.2667V30.0667H29.4851L29.8518 29.7L28.3851 28.2333ZM27.7149 25.6667L28.8149 26.7667L27.3482 28.2333L28.8149 29.7L27.7149 30.8H32.2667V32.2667H11.7333V31.9H15.0333C15.2357 31.9 15.4 31.7361 15.4 31.5333C15.4 31.3306 15.2357 31.1667 15.0333 31.1667H11.7333V30.8H14.3C14.5024 30.8 14.6667 30.6361 14.6667 30.4333C14.6667 30.2306 14.5024 30.0667 14.3 30.0667H11.7333V29.7H13.5667C13.7691 29.7 13.9333 29.5361 13.9333 29.3333C13.9333 29.1306 13.7691 28.9667 13.5667 28.9667H11.7333V28.6H12.8333C13.0357 28.6 13.2 28.4361 13.2 28.2333C13.2 28.0306 13.0357 27.8667 12.8333 27.8667H11.7333V20.1667H18.3333H18.7H25.3H25.6667H32.2667V25.6667H27.7149Z" fill="#FFEFBC"/>
</svg>
